<?xml version="1.0" encoding="utf-8"?>
<!-- Generator: Adobe Illustrator 27.5.0, SVG Export Plug-In . SVG Version: 6.00 Build 0)  -->
<svg version="1.1" xmlns="http://www.w3.org/2000/svg" xmlns:xlink="http://www.w3.org/1999/xlink" x="0px" y="0px"
	 viewBox="0 0 3710 3710" style="enable-background:new 0 0 3710 3710;" xml:space="preserve">
<g id="Background">
	<g>
		<g>
			<rect style="fill:#FFFFFF;" width="3710" height="3710"/>
		</g>
	</g>
</g>
<g id="Illustration">
	<g>
		<linearGradient id="SVGID_1_" gradientUnits="userSpaceOnUse" x1="3464.2251" y1="3634.2959" x2="1524.4781" y2="1569.4044">
			<stop  offset="0" style="stop-color:#DAE3FE"/>
			<stop  offset="1" style="stop-color:#E9EFFD"/>
		</linearGradient>
		<path style="fill:url(#SVGID_1_);" d="M2881.818,2805.87c-71.607,73.811-135.679,117.199-184.735,149.954
			c-478.43,319.452-1025.329,227.379-1194.416,195.908c-272.802-50.774-503.084-86.593-700.938-265.346
			c-449.583-406.181-427.716-1253.504-84.18-1778.384c40.733-62.236,383.75-570.692,931.832-642.338
			c13.405-1.752,23.407-2.75,32.168-3.678c84.787-8.977,610.196-56.356,1038.614,302.573
			c61.326,51.379,160.017,144.053,251.536,285.397C3306.333,1566.771,3307.393,2367.204,2881.818,2805.87z"/>
		<g>
			<g>
				
					<linearGradient id="SVGID_00000075141063182186394680000008696850360788129964_" gradientUnits="userSpaceOnUse" x1="1756.0704" y1="3392.1331" x2="2550.8267" y2="1654.4482">
					<stop  offset="0" style="stop-color:#09005D"/>
					<stop  offset="1" style="stop-color:#1A0F91"/>
				</linearGradient>
				<polygon style="fill:url(#SVGID_00000075141063182186394680000008696850360788129964_);" points="1749.65,2508.072 
					1693.779,3009.156 2341.99,3009.156 2257.56,2508.072 				"/>
				
					<linearGradient id="SVGID_00000165196757947791030510000009110772305281272765_" gradientUnits="userSpaceOnUse" x1="2351.8623" y1="620.2628" x2="1745.6936" y2="2533.0598">
					<stop  offset="0" style="stop-color:#09005D"/>
					<stop  offset="1" style="stop-color:#1A0F91"/>
				</linearGradient>
				<path style="fill:url(#SVGID_00000165196757947791030510000009110772305281272765_);" d="M660.77,1273.509v1147.612
					c0,94.406,75.23,171.608,169.606,174.042c419.164,10.809,1885.197,37.018,2284.212,31.135
					c68.58-1.011,124.137-55.891,126.115-124.451c7.694-266.606,20.19-907.704-26.053-1205.34
					c-9.739-62.679-62.646-109.549-126.044-111.577c-351.207-11.235-1905.298-46.911-2304.127-37.954
					C715.694,1148.52,660.77,1204.707,660.77,1273.509z"/>
				<path style="fill:#91B3FA;" d="M732.78,1267.923v1090.31c0,55.12,44.246,100.032,99.359,100.857l2225.045,27.489
					c54.641,0.817,99.43-43.144,99.634-97.791l3.722-1080.569c0.146-39.074-30.984-71.089-70.046-72.04L812.46,1190.158
					C768.771,1189.094,732.78,1224.221,732.78,1267.923z"/>
				<path style="fill:#91B3FA;" d="M3173.569,2531.594c-0.02,0-0.04,0-0.06,0l-2440.789-41.586c-1.887-0.033-3.39-1.588-3.358-3.473
					c0.032-1.868,1.556-3.36,3.417-3.36c0.018,0,0.038,0,0.058,0l2440.789,41.586c1.887,0.033,3.39,1.588,3.358,3.473
					C3176.952,2530.102,3175.428,2531.594,3173.569,2531.594z"/>
				
					<linearGradient id="SVGID_00000114061081093563247220000014844507450699212960_" gradientUnits="userSpaceOnUse" x1="2176.4629" y1="2752.802" x2="1752.1439" y2="3540.8215">
					<stop  offset="0" style="stop-color:#09005D"/>
					<stop  offset="1" style="stop-color:#1A0F91"/>
				</linearGradient>
				<path style="fill:url(#SVGID_00000114061081093563247220000014844507450699212960_);" d="M2481.614,3111.677h-948.701
					c-25.773,0-45.128-18.348-40.145-38.056l12.174-48.144c3.661-14.479,19.589-25.108,38.508-25.698l914.582-28.539
					c19.765-0.616,37.266,9.875,41.572,24.922l21.945,76.682C2527.251,3092.767,2507.804,3111.677,2481.614,3111.677z"/>
				<path style="fill:#91B3FA;" d="M2043.615,3013.144c-1.863,0-3.386-1.498-3.415-3.366c-0.027-1.888,1.48-3.44,3.367-3.467
					l39.192-0.571c1.854,0,3.44,1.481,3.467,3.366c0.027,1.888-1.48,3.44-3.367,3.467l-39.192,0.571
					C2043.65,3013.144,2043.632,3013.144,2043.615,3013.144z"/>
				<path style="fill:#91B3FA;" d="M1527.894,3085.459c-0.18,0-0.36-0.013-0.544-0.043c-1.864-0.297-3.133-2.049-2.834-3.91
					l5.59-35.017c3.029-18.975,19.171-32.948,38.381-33.231l415.681-6.076c1.737-0.073,3.438,1.481,3.467,3.366
					c0.027,1.888-1.48,3.44-3.367,3.467l-415.681,6.076c-15.883,0.233-29.229,11.788-31.735,27.473l-5.59,35.017
					C1530.995,3084.262,1529.542,3085.459,1527.894,3085.459z"/>
			</g>
			<path style="fill:#BDD0FB;" d="M2843.674,2351.248H837.632c-18.313,0-33.159-14.845-33.159-33.158v-1007.32
				c0-18.313,14.846-33.159,33.159-33.159h2006.042c18.313,0,33.158,14.846,33.158,33.159v1007.32
				C2876.833,2336.402,2861.987,2351.248,2843.674,2351.248z"/>
			<g>
				<defs>
					<path id="SVGID_00000011722085324179197670000003967700131495798676_" d="M3089.733,2351.248H844.367
						c-18.313,0-33.159-14.845-33.159-33.158V648.261c0-18.313,14.846-33.159,33.159-33.159h2245.366
						c18.313,0,33.158,14.846,33.158,33.159v1669.829C3122.892,2336.402,3108.046,2351.248,3089.733,2351.248z"/>
				</defs>
				<clipPath id="SVGID_00000106850384617636568750000016823336456030456751_">
					<use xlink:href="#SVGID_00000011722085324179197670000003967700131495798676_"  style="overflow:visible;"/>
				</clipPath>
				<g style="clip-path:url(#SVGID_00000106850384617636568750000016823336456030456751_);">
					
						<linearGradient id="SVGID_00000026872530194184020690000014688470308569659266_" gradientUnits="userSpaceOnUse" x1="2668.4124" y1="668.1003" x2="1974.7993" y2="1520.8002" gradientTransform="matrix(0.9922 -0.1247 0.1247 0.9922 -281.0365 715.4178)">
						<stop  offset="0" style="stop-color:#FEBBBA"/>
						<stop  offset="1" style="stop-color:#FF928E"/>
					</linearGradient>
					<path style="fill:url(#SVGID_00000026872530194184020690000014688470308569659266_);" d="M2383.782,1287.001
						c-4.516-8.632-17.289-7.272-19.897,2.115c-9.655,34.748-33.018,95.38-82.044,116.91c-2.469,1.085-4.809,2.181-7.07,3.285
						c-2.225-6.666-2.254-14.407,3.07-22.546c15.243-23.295-12.273-55.108-12.273-55.108s-1.821,28.02-23.12,45.662
						c-18.345,15.197-27.152,49.012-14.617,76.755c26.535,103.064,66.268,239.378-88.505,338.964
						c-154.772,99.587-372.735-187.942-372.735-187.942l108.18,342.95c0,0,166.978,123.221,361.201-50.046
						c194.225-173.267,65.489-425.394,65.489-425.394S2449.601,1412.843,2383.782,1287.001z"/>
					
						<linearGradient id="SVGID_00000088854611330741268480000016023995519910919329_" gradientUnits="userSpaceOnUse" x1="-1638.861" y1="645.6452" x2="-2093.696" y2="1186.0969" gradientTransform="matrix(-0.9602 0.2794 0.2794 0.9602 -919.4408 797.6744)">
						<stop  offset="0" style="stop-color:#09005D"/>
						<stop  offset="1" style="stop-color:#1A0F91"/>
					</linearGradient>
					<path style="fill:url(#SVGID_00000088854611330741268480000016023995519910919329_);" d="M1739.486,1101.201
						c0,0,44.841-201.137-185.556-147.891c0,0-111.838-18.276-117.525,87.282c0,0-72.089,47.502-19.307,138.855
						c0,0-214.246-82.753-307.593,105.036s-7.542,291.118,82.408,318.031c0,0-72.877,36.592-38.381,119.214
						c34.496,82.622,209.191,140.865,312.386,40.388c0,0,293.638,38.804,287.761-168.605c0,0,136.575-88.194-6.873-259.605
						C1603.359,1162.496,1739.486,1101.201,1739.486,1101.201z"/>
					
						<linearGradient id="SVGID_00000057111905726264734660000005692974917619717514_" gradientUnits="userSpaceOnUse" x1="2204.1348" y1="1308.2333" x2="2103.1069" y2="1429.4666">
						<stop  offset="0" style="stop-color:#FF928E"/>
						<stop  offset="1" style="stop-color:#FE7062"/>
					</linearGradient>
					<path style="fill:url(#SVGID_00000057111905726264734660000005692974917619717514_);" d="M1752.139,1567.42
						c-46.298-13.879-181.1-39.505-309.322,78.823c-21.746,20.069-30.634,50.562-22.878,79.119
						c34.439,126.79,125.304,501.385,45.631,663.465c0,0,140.403,154.775,293.577,30.029c0,0,68.725-299.528,158.741-431.021
						c62.147-90.782-99.097-340.9-139.894-401.326C1771.817,1577.36,1762.713,1570.59,1752.139,1567.42z"/>
					
						<linearGradient id="SVGID_00000154407458110290377280000002501826184631625099_" gradientUnits="userSpaceOnUse" x1="-2297.4893" y1="1598.5027" x2="-2260.4329" y2="1335.4019" gradientTransform="matrix(-0.9602 0.2794 0.2794 0.9602 -919.4408 797.6744)">
						<stop  offset="0" style="stop-color:#FEBBBA"/>
						<stop  offset="1" style="stop-color:#FF928E"/>
					</linearGradient>
					<path style="fill:url(#SVGID_00000154407458110290377280000002501826184631625099_);" d="M1624.307,1315.521
						c0,0-68.471,193.675-73.622,279.117c0,0,75.676,34.411,146.982-23.669c0,0,7.482-193.449,18.293-228.089L1624.307,1315.521z"/>
					
						<linearGradient id="SVGID_00000178204052573913684670000003631504763180026529_" gradientUnits="userSpaceOnUse" x1="-2467.377" y1="1034.7528" x2="-2120.8909" y2="1433.1188" gradientTransform="matrix(-0.9602 0.2794 0.2794 0.9602 -919.4408 797.6744)">
						<stop  offset="0" style="stop-color:#FEBBBA"/>
						<stop  offset="1" style="stop-color:#FF928E"/>
					</linearGradient>
					<path style="fill:url(#SVGID_00000178204052573913684670000003631504763180026529_);" d="M1719.415,1051.451
						c0,0,179.09,250.627,72.035,323.424c-107.053,72.798-234.542-105.31-234.542-105.31s-41.555-137.178,1.897-183.712
						C1602.256,1039.316,1719.415,1051.451,1719.415,1051.451z"/>
					
						<linearGradient id="SVGID_00000150060880171970202380000002438914261916623544_" gradientUnits="userSpaceOnUse" x1="-1856.7037" y1="462.3184" x2="-2311.5486" y2="1002.7817" gradientTransform="matrix(-0.9602 0.2794 0.2794 0.9602 -919.4408 797.6744)">
						<stop  offset="0" style="stop-color:#09005D"/>
						<stop  offset="1" style="stop-color:#1A0F91"/>
					</linearGradient>
					<path style="fill:url(#SVGID_00000150060880171970202380000002438914261916623544_);" d="M1636.521,991.558
						c0,0,82.273,19.495,93.803,56.719c11.53,37.227-116.672,71.745-152.592,73.434l-28.944,150.216
						c0,0-85.562-141.311-51.669-222.922C1531.011,967.392,1636.521,991.558,1636.521,991.558z"/>
					
						<linearGradient id="SVGID_00000018214377576827438300000008716979722260871300_" gradientUnits="userSpaceOnUse" x1="-2380.811" y1="959.4517" x2="-2034.3274" y2="1357.8152" gradientTransform="matrix(-0.9602 0.2794 0.2794 0.9602 -919.4408 797.6744)">
						<stop  offset="0" style="stop-color:#FEBBBA"/>
						<stop  offset="1" style="stop-color:#FF928E"/>
					</linearGradient>
					<path style="fill:url(#SVGID_00000018214377576827438300000008716979722260871300_);" d="M1591.626,1251.122
						c0,0-69.708-80.729-97.434-28.099c-27.726,52.629,62.743,92.143,94.062,66.303L1591.626,1251.122z"/>
					
						<linearGradient id="SVGID_00000045603219641375729950000000491956564613312681_" gradientUnits="userSpaceOnUse" x1="1101.7147" y1="4661.2666" x2="1928.353" y2="3202.0725" gradientTransform="matrix(1 -0.0095 0.0095 1 -24.9307 56.9446)">
						<stop  offset="0" style="stop-color:#FEBBBA"/>
						<stop  offset="1" style="stop-color:#FF928E"/>
					</linearGradient>
					<path style="fill:url(#SVGID_00000045603219641375729950000000491956564613312681_);" d="M1937.961,3047.745
						c-0.526,13.598,23.347,121.455,36.342,178.987c5.229,23.147,1.587,47.374-10.199,67.97l-449.977,757.333
						c-5.444,9.161-9.406,19.085-11.814,29.463c-8.246,35.541-25.35,122.64-16.42,201.878l23.278,48.347l-100.674-22.859
						l-21.904-270.359l28.5-17.378c24.622-15.012,43.795-37.455,54.771-64.122c40.688-98.835,141.729-350.42,167.775-473.029
						c29.599-139.345,184.339-252.525,184.339-252.525l-27.185-64.271L1937.961,3047.745z"/>
					
						<linearGradient id="SVGID_00000026158186117040018030000001652684087530386845_" gradientUnits="userSpaceOnUse" x1="1281.9158" y1="4145.3584" x2="1523.5442" y2="4145.3584" gradientTransform="matrix(1 -0.0095 0.0095 1 -24.9307 56.9446)">
						<stop  offset="0" style="stop-color:#09005D"/>
						<stop  offset="1" style="stop-color:#1A0F91"/>
					</linearGradient>
					<path style="fill:url(#SVGID_00000026158186117040018030000001652684087530386845_);" d="M1296.61,4215.833
						c0,0,54.366-86.191,60.762-119.743c6.396-33.552,24.202-92.798,57.72-74.962c0,0,15.795,162.982,10.35,226.665
						c-5.445,63.683,71.992,61.636,71.992,61.636s21.342,3,36.971,18.625c10.793,10.79,3.074,29.509-12.154,30.491
						c-25.339,1.633-65.591,2.061-107.854-6.105c-14.771-2.855-25.721-15.423-26.615-30.44l-11.157-187.58l-68.578,86.592
						L1296.61,4215.833z"/>
					
						<linearGradient id="SVGID_00000008140249884629308610000001617240392078826401_" gradientUnits="userSpaceOnUse" x1="2038.4982" y1="3581.792" x2="802.2301" y2="3977.1108" gradientTransform="matrix(1 -0.0095 0.0095 1 -24.9307 56.9446)">
						<stop  offset="0" style="stop-color:#FEBBBA"/>
						<stop  offset="1" style="stop-color:#FF928E"/>
					</linearGradient>
					<path style="fill:url(#SVGID_00000008140249884629308610000001617240392078826401_);" d="M1669.151,3168.38
						c0,0-15.87,677.43-18.02,773.641c-2.149,96.212,15.193,309.428,111.643,373.16l-41.969,31.072
						c0,0-52.449-44.58-103.691-130.374c-57.562-96.379-74.969-113.988-74.969-113.988l19.101-39.117
						c8.363-17.125,10.82-36.498,6.969-55.164c-20.813-100.877-90.346-436.41-109.313-508.669
						c-22.389-85.296-23.982-199.201,53.911-294.547C1590.706,3109.049,1669.151,3168.38,1669.151,3168.38z"/>
					
						<linearGradient id="SVGID_00000063616086458394322050000002283802077336596901_" gradientUnits="userSpaceOnUse" x1="1505.9368" y1="4188.9985" x2="1793.9813" y2="4188.9985" gradientTransform="matrix(1 -0.0095 0.0095 1 -24.9307 56.9446)">
						<stop  offset="0" style="stop-color:#09005D"/>
						<stop  offset="1" style="stop-color:#1A0F91"/>
					</linearGradient>
					<path style="fill:url(#SVGID_00000063616086458394322050000002283802077336596901_);" d="M1580.085,4376.785
						c-2.992,0.028-5.536-2.114-5.957-5.077c-3.212-22.584-16.571-113.127-27.507-136.572
						c-12.525-26.851-53.437-139.862,0.023-149.456c0,0,132.905,194.176,158.417,220.355c25.514,26.181,57.712,9.146,57.712,9.146
						s24.857,7.344,43.604,31.3c8.921,11.401,0.61,28.139-13.867,28.277l-89.521,0.854c-25.998,0.248-49.382-15.546-59.046-39.682
						c-15.757-39.358-42.827-97.089-74.375-122.7l16.393,156.968C1586.328,4373.697,1583.603,4376.751,1580.085,4376.785z"/>
					
						<linearGradient id="SVGID_00000123436703421122918300000000604753756375280818_" gradientUnits="userSpaceOnUse" x1="326.8754" y1="4225.5776" x2="2357.4343" y2="2078.8396">
						<stop  offset="0" style="stop-color:#53D8FF"/>
						<stop  offset="1" style="stop-color:#3840F7"/>
					</linearGradient>
					<path style="fill:url(#SVGID_00000123436703421122918300000000604753756375280818_);" d="M1780.336,2345.815
						c0,0-20.173,64.299,10.818,170.205l192.25,671.35c3.02,10.549-2.673,21.589-13,25.296
						c-57.506,20.64-246.547,78.974-504.604,61.186c-12.993-0.896-23.887-10.096-26.713-22.81
						c-17.004-76.536-75.019-337.67-86.964-391.325c-45.515-204.448-96.336-424.929,127.237-558.247
						C1582.399,2345.601,1678.499,2371.614,1780.336,2345.815z"/>
					
						<linearGradient id="SVGID_00000180358391189735288770000015551297450771678113_" gradientUnits="userSpaceOnUse" x1="1252.9954" y1="1900.0481" x2="2624.2903" y2="331.4886" gradientTransform="matrix(0.9922 -0.1247 0.1247 0.9922 -281.0365 715.4178)">
						<stop  offset="0" style="stop-color:#FEBBBA"/>
						<stop  offset="1" style="stop-color:#FF928E"/>
					</linearGradient>
					<path style="fill:url(#SVGID_00000180358391189735288770000015551297450771678113_);" d="M1424.471,1671.542
						c0,0-218.738,181.782-273.023,430.183c-54.284,248.399,319.633,274.801,319.633,274.801s50.761-56.684,111.025-36.468
						c60.263,20.215,4.666-98.927-65.844-98.615c-70.509,0.314-37.846,56.066-137.591,10.885
						c-97.164-44.012-157.221-180.132,90.688-386.468c14.37-11.961,25.837-27.209,32.741-44.585
						C1550.263,1700.038,1512.063,1620.568,1424.471,1671.542z"/>
				</g>
			</g>
		</g>
		<g>
			
				<linearGradient id="SVGID_00000159470525625126631850000002831098061997929375_" gradientUnits="userSpaceOnUse" x1="597.0311" y1="638.2054" x2="933.7907" y2="1224.1678">
				<stop  offset="0" style="stop-color:#4F52FF"/>
				<stop  offset="1" style="stop-color:#4042E2"/>
			</linearGradient>
			<path style="fill:url(#SVGID_00000159470525625126631850000002831098061997929375_);" d="M1075.455,936.247l47.677,127.519
				c6.472,17.31,5.143,36.574-3.702,52.8c-22.212,40.748-78.663,115.759-208.132,162.814
				c-131.493,47.79-210.952,17.374-245.886-4.186c-12.649-7.807-22.372-19.543-27.698-33.42l-51.78-134.934L1075.455,936.247z"/>
			
				<linearGradient id="SVGID_00000161617140881839486810000003820631200677946790_" gradientUnits="userSpaceOnUse" x1="835.8818" y1="942.0347" x2="909.9684" y2="302.192">
				<stop  offset="0" style="stop-color:#4F52FF"/>
				<stop  offset="1" style="stop-color:#4042E2"/>
			</linearGradient>
			<path style="fill:url(#SVGID_00000161617140881839486810000003820631200677946790_);" d="M787.07,810.302l386.32,72.705
				c19.892,3.744,27.57,28.153,13.39,42.598c-69.168,70.457-226.047,234.199-282.837,326.3
				c-6.075,9.853-18.079,14.286-29.119,10.806L479.48,1138.089c-17.883-5.637-23.653-28.077-10.692-41.626
				c68.35-71.455,242.523-250.627,301.362-283.448C775.293,810.146,781.283,809.213,787.07,810.302z"/>
			
				<linearGradient id="SVGID_00000122679931374740417740000002835045252529497486_" gradientUnits="userSpaceOnUse" x1="925.7697" y1="-74.6022" x2="777.5956" y2="673.0057">
				<stop  offset="0" style="stop-color:#4F52FF"/>
				<stop  offset="1" style="stop-color:#4042E2"/>
			</linearGradient>
			<path style="fill:url(#SVGID_00000122679931374740417740000002835045252529497486_);" d="M798.911,987.191
				c0,0-189.966,144.365-202.756,174.675c-12.79,30.31,29.55,159.317,29.55,159.317c-21.916,114.231-16.032,235.685,42.958,294.339
				c0,0,53.11-152.336,18.271-211.547c-34.839-59.211-48.399-83.546-48.399-83.546s-38.018-138.147-31.624-158.929
				C606.911,1161.501,816.675,993.732,798.911,987.191z"/>
			<path style="fill:#91B3FA;" d="M1112.371,905.211l-176.368,207.224l-44.092,51.806l-11.023,12.952l-5.504,6.444
				c-1.719,2.011-3.708,3.776-5.82,5.36c-8.509,6.315-19.853,8.626-30.211,5.976l-132.282-31.832
				c-1.044-0.251-2.095,0.391-2.346,1.435c-0.25,1.04,0.386,2.085,1.422,2.343l132.037,32.833
				c11.652,3.077,24.669,0.582,34.436-6.574c2.432-1.791,4.72-3.801,6.707-6.086l5.59-6.445l11.121-12.868l44.483-51.471
				l177.933-205.881c1.447-1.674,1.263-4.205-0.411-5.652c-1.674-1.447-4.205-1.262-5.652,0.411L1112.371,905.211z"/>
			<path style="fill:#91B3FA;" d="M646.331,1387.629l0.417,0.372l0.492,0.489l0.998,0.991l1.94,2.185
				c1.284,1.477,2.439,3.122,3.671,4.673l3.324,5.017c1.048,1.718,1.991,3.511,2.995,5.264c1.046,1.73,1.873,3.589,2.727,5.433
				c0.841,1.849,1.755,3.667,2.542,5.543l2.156,5.73c0.701,1.917,1.511,3.798,2.017,5.788l1.722,5.902
				c0.557,1.973,1.22,3.919,1.578,5.948c0.835,4.025,1.738,8.041,2.524,12.083l1.668,12.266c0.129,1.024,0.302,2.043,0.396,3.071
				l0.198,3.095l0.397,6.193c0.79,8.25,0.378,16.557,0.434,24.854c0.046,2.077-0.112,4.148-0.266,6.22l-0.43,6.218
				c-0.306,4.144-0.529,8.298-0.902,12.44c-1.122,8.244-2.069,16.522-3.334,24.755l-4.665,24.578l-0.014,0.074
				c-0.144,0.756,0.353,1.485,1.109,1.629c0.743,0.141,1.461-0.339,1.621-1.073l5.337-24.606c1.49-8.261,2.665-16.588,4.013-24.888
				c0.487-4.176,0.823-8.373,1.242-12.561l0.599-6.288c0.21-2.095,0.424-4.191,0.434-6.301c0.167-8.427,0.798-16.861,0.217-25.31
				l-0.242-6.339l-0.122-3.17c-0.069-1.055-0.217-2.106-0.322-3.159l-1.387-12.643c-0.698-4.187-1.522-8.36-2.281-12.546
				c-0.319-2.106-0.95-4.148-1.475-6.215l-1.634-6.188c-0.477-2.083-1.267-4.079-1.95-6.107l-2.11-6.07
				c-0.777-1.999-1.69-3.951-2.531-5.929c-0.854-1.975-1.682-3.962-2.749-5.848c-1.023-1.904-1.983-3.841-3.065-5.721l-3.464-5.534
				c-1.316-1.764-2.529-3.578-3.943-5.297l-2.161-2.561l-1.194-1.253l-0.607-0.63l-0.739-0.688
				c-1.619-1.507-4.154-1.418-5.662,0.202c-1.508,1.619-1.417,4.155,0.202,5.662c0.016,0.015,0.032,0.03,0.049,0.045
				L646.331,1387.629z"/>
			<path style="fill:#91B3FA;" d="M644.721,1440.046l0.694,7.844l0.704,8.85l1.316,17.743l2.49,35.52l4.766,71.071
				c0.077,1.201,1.112,2.111,2.312,2.035c1.181-0.076,2.081-1.088,2.037-2.264l-2.94-71.186l-1.578-35.596l-0.862-17.808
				l-0.48-8.919l-0.281-4.492l-0.153-2.258c-0.091-0.968-0.257-2.109-0.445-3.141c-0.385-2.118-2.415-3.523-4.533-3.137
				c-1.994,0.363-3.356,2.183-3.187,4.162L644.721,1440.046z"/>
		</g>
		<g>
			
				<linearGradient id="SVGID_00000175303807023529747430000001610942104962735746_" gradientUnits="userSpaceOnUse" x1="2825.9153" y1="1771.6543" x2="2724.8877" y2="2744.8911">
				<stop  offset="0" style="stop-color:#4F52FF"/>
				<stop  offset="1" style="stop-color:#4042E2"/>
			</linearGradient>
			<path style="fill:url(#SVGID_00000175303807023529747430000001610942104962735746_);" d="M3095.71,2418.177
				c0,0,104.483,57.879,113.127,155.836c8.644,97.958,0.719,504.539-208.795,604.61c-209.515,100.071-486.841,77.008-592.996,66.068
				c-106.155-10.94-165.013-83.084-178.161-132.758c-13.148-49.673-34.385-234.713,77.288-294.4
				c111.673-59.688,228.962-151.131,346.162-240.172C2769.535,2488.32,2970.39,2342.97,3095.71,2418.177z"/>
			
				<linearGradient id="SVGID_00000045591027156714641350000001720850157998955907_" gradientUnits="userSpaceOnUse" x1="738.7994" y1="2906.4473" x2="841.0292" y2="3013.2207" gradientTransform="matrix(-1 0 0 1 3049.4082 0)">
				<stop  offset="0" style="stop-color:#09005D"/>
				<stop  offset="1" style="stop-color:#1A0F91"/>
			</linearGradient>
			<path style="fill:url(#SVGID_00000045591027156714641350000001720850157998955907_);" d="M2339.104,2851.303
				c0,0,28.199,1.492,31.657,59.508c0,0-65.389,58.618-153.718,72.571c-6.631,1.047,9.27-45.267,11.661-51.54
				C2240.078,2901.991,2275.899,2882.767,2339.104,2851.303z"/>
			
				<linearGradient id="SVGID_00000007411145648488966810000009529342233533879720_" gradientUnits="userSpaceOnUse" x1="2258.9641" y1="2722.6406" x2="2662.0852" y2="2722.6406">
				<stop  offset="0" style="stop-color:#E1473D"/>
				<stop  offset="1" style="stop-color:#E9605A"/>
			</linearGradient>
			<path style="fill:url(#SVGID_00000007411145648488966810000009529342233533879720_);" d="M2656.689,2783.087h-59.508
				c0,0-182.646-201.715-302.438-222.066c0,0-83.387,106.443,4.441,305.328c7.065,15.999,26.825,23.107,41.565,13.693
				c4.408-2.816,7.574-6.59,9.497-11.321l-7.063-169.815c0,0,155.798,136.262,182.878,162.558
				C2553.143,2887.759,2690.794,2871.732,2656.689,2783.087z"/>
			
				<linearGradient id="SVGID_00000088817099519024131320000004263436276060222618_" gradientUnits="userSpaceOnUse" x1="874.4129" y1="3174.4482" x2="1067.7845" y2="3316.3723" gradientTransform="matrix(-1 0 0 1 3049.4082 0)">
				<stop  offset="0" style="stop-color:#09005D"/>
				<stop  offset="1" style="stop-color:#1A0F91"/>
			</linearGradient>
			<path style="fill:url(#SVGID_00000088817099519024131320000004263436276060222618_);" d="M2081.373,3206.598
				c24.937-21.851,64.67-46.371,122.029-53.401l19.399,11.865c0,0-12.37,18.246-34.967,37.519
				c-20.769,12.063-52.838,28.401-79.426,31.942C2082.558,3237.966,2078.746,3222.346,2081.373,3206.598z"/>
			<path style="fill:#91B3FA;" d="M2228.703,2931.842c15.363,4.972,22.119,26.738,61.103,12.345
				c37.715-13.925,65.751-31.883,80.176-42.239c0.323,2.807,0.593,5.738,0.78,8.864c0,0-68.947,65.58-157.276,79.532
				c-6.631,1.048-11.886-5.572-9.496-11.845C2208.278,2967.241,2216.012,2950.168,2228.703,2931.842z"/>
			<path style="fill:#91B3FA;" d="M2062.587,3225.258c4.916-5.587,11.191-12.005,18.786-18.66
				c-2.627,15.748,1.186,31.368,27.035,27.925c26.588-3.541,58.657-19.88,79.426-31.942c-26.03,22.2-65.636,45.763-115.625,44.379
				C2061.106,3246.653,2055.25,3233.597,2062.587,3225.258z"/>
			
				<linearGradient id="SVGID_00000023990786448601598600000008714720232722393231_" gradientUnits="userSpaceOnUse" x1="2187.5342" y1="3002.5173" x2="2774.2202" y2="3002.5173">
				<stop  offset="0" style="stop-color:#E1473D"/>
				<stop  offset="1" style="stop-color:#E9605A"/>
			</linearGradient>
			<path style="fill:url(#SVGID_00000023990786448601598600000008714720232722393231_);" d="M2654.512,2826.144l-278.672,3.017
				c0,0-159.142,131.667-188.007,332.438c0,0-4.791,14.766,23.975,17.292c0,0,96.216-62.841,158.953-173.943
				c76.925-136.228,229.323-74.906,229.323-74.906c50.074-36.101,120.831-43.453,174.136-55.48L2654.512,2826.144z"/>
			
				<linearGradient id="SVGID_00000062904934981582623960000003521411120022362298_" gradientUnits="userSpaceOnUse" x1="562.0001" y1="2649.9277" x2="430.7206" y2="2806.0439" gradientTransform="matrix(-1 0 0 1 3049.4082 0)">
				<stop  offset="0" style="stop-color:#FEBBBA"/>
				<stop  offset="1" style="stop-color:#FF928E"/>
			</linearGradient>
			<path style="fill:url(#SVGID_00000062904934981582623960000003521411120022362298_);" d="M2647.931,2601.66
				c0,0-30,150.344-176.989,209.822l-52.285-6.162l-12.338,19.672l122.645,3.908c0,0,104.836-41.523,160.381-154.668
				C2691.181,2670.493,2721.768,2607.338,2647.931,2601.66z"/>
			
				<linearGradient id="SVGID_00000124162504474269535060000015641078154254247322_" gradientUnits="userSpaceOnUse" x1="3676.864" y1="2046.8851" x2="3025.2664" y2="2486.3352">
				<stop  offset="0" style="stop-color:#FF928E"/>
				<stop  offset="1" style="stop-color:#FE7062"/>
			</linearGradient>
			<path style="fill:url(#SVGID_00000124162504474269535060000015641078154254247322_);" d="M2631.855,2823.687
				c0,0,34.114-92.733,41.446-182.839c0,0-24.957-21.448-40.556-30.702c-5.052-2.997-6.959-9.335-4.406-14.625
				c11.469-23.758,80.827-117.048,86.021-118.345c28.24-7.047,144.053-62.114,225.62,49.458
				c35.006,47.883-6.947,195.282-165.761,347.929l-32.763,6.266L2631.855,2823.687z"/>
			
				<linearGradient id="SVGID_00000006697177614681826810000001167032078625661883_" gradientUnits="userSpaceOnUse" x1="408.9227" y1="2791.9749" x2="671.3295" y2="2432.9883" gradientTransform="matrix(-1 0 0 1 3049.4082 0)">
				<stop  offset="0" style="stop-color:#FEBBBA"/>
				<stop  offset="1" style="stop-color:#FF928E"/>
			</linearGradient>
			<path style="fill:url(#SVGID_00000006697177614681826810000001167032078625661883_);" d="M2763.308,2661.168
				c0,0-94.781,112.226-215.959,128.631c0,0-31.317-28.551-54.604-18.358c-23.287,10.194-55.219,55.188-55.219,55.188h155.592
				c0,0,147.119-5.183,220.634-94.396C2807.836,2701.016,2790.121,2682.369,2763.308,2661.168z"/>
			
				<linearGradient id="SVGID_00000079465311285705159780000006791880148940025267_" gradientUnits="userSpaceOnUse" x1="248.4013" y1="2494.4832" x2="258.0669" y2="2407.4929" gradientTransform="matrix(-1 0 0 1 3049.4082 0)">
				<stop  offset="0" style="stop-color:#FEBBBA"/>
				<stop  offset="1" style="stop-color:#FF928E"/>
			</linearGradient>
			<path style="fill:url(#SVGID_00000079465311285705159780000006791880148940025267_);" d="M2818.601,2398.462l20.738,69.167
				c0.95,3.169-0.223,6.601-2.953,8.47c-9.984,6.838-36.08,20.438-71.878,7.221c-4.094-1.512-6.899-5.335-7.254-9.685l-4.917-60.256
				L2818.601,2398.462z"/>
			<g>
				
					<linearGradient id="SVGID_00000125602239332591026730000015036940427519795594_" gradientUnits="userSpaceOnUse" x1="516.4543" y1="-678.7363" x2="473.8534" y2="-819.2444" gradientTransform="matrix(-0.776 -0.6308 -0.6308 0.776 2696.3855 3227.6406)">
					<stop  offset="0" style="stop-color:#FEBBBA"/>
					<stop  offset="1" style="stop-color:#FF928E"/>
				</linearGradient>
				<path style="fill:url(#SVGID_00000125602239332591026730000015036940427519795594_);" d="M2731.225,2283.087
					c0,0-37.312,62.069-29.847,96.551c7.465,34.482,59.578,55.447,107.736,24.935l30.27-94.495L2731.225,2283.087z"/>
				
					<linearGradient id="SVGID_00000082347395834773569770000006825529980024891779_" gradientUnits="userSpaceOnUse" x1="478.0134" y1="-936.7328" x2="517.6206" y2="-710.8251" gradientTransform="matrix(-0.776 -0.6308 -0.6308 0.776 2696.3855 3227.6406)">
					<stop  offset="0" style="stop-color:#09005D"/>
					<stop  offset="1" style="stop-color:#1A0F91"/>
				</linearGradient>
				<path style="fill:url(#SVGID_00000082347395834773569770000006825529980024891779_);" d="M2804.818,2359.053
					c-2.051-0.798-2.906-3.223-1.787-5.118c3.403-5.763,9.74-17.493,11.467-27.585c0,0,7.973-5.642-21.477-11.267
					c-29.451-5.626-73.389-14.44-83.665-38.812c-10.019-23.762,10.56-85.634,50.113-38.921c1.505,1.778,4.289,1.69,5.621-0.22
					c5.749-8.245,21.068-25.513,43.859-16.527c21.328,8.409,24.39,23.612,24.459,31.342c0.021,2.274,2.132,3.945,4.344,3.417
					c10.472-2.503,35.742-5.406,48.777,20.054c10.737,20.97,4.962,33.389-0.533,39.586c-1.78,2.007-0.815,5.133,1.784,5.8
					c7.042,1.805,16.279,7.277,16.133,23.585c-0.201,22.545-25.435,21.726-32.641,21.032c-1.181-0.113-2.344,0.344-3.098,1.259
					c-5.824,7.076-32.145,37.195-61.914,42.055c-2.578,0.421-4.705-2.046-3.97-4.552l11.212-38.251
					c0.521-1.776-0.404-3.656-2.13-4.327L2804.818,2359.053z"/>
				
					<linearGradient id="SVGID_00000152223876058916208520000000889721873815908263_" gradientUnits="userSpaceOnUse" x1="472.3291" y1="-665.3586" x2="429.7279" y2="-805.8674" gradientTransform="matrix(-0.776 -0.6308 -0.6308 0.776 2696.3855 3227.6406)">
					<stop  offset="0" style="stop-color:#FEBBBA"/>
					<stop  offset="1" style="stop-color:#FF928E"/>
				</linearGradient>
				<path style="fill:url(#SVGID_00000152223876058916208520000000889721873815908263_);" d="M2799.858,2364.638
					c0,0,31.51-23.831,34.757-5.139c3.247,18.692-28.045,28.589-44.062,22.305L2799.858,2364.638z"/>
			</g>
			
				<linearGradient id="SVGID_00000021800375817580665240000002833660756625222277_" gradientUnits="userSpaceOnUse" x1="2261.8213" y1="2551.0134" x2="2420.0986" y2="2837.2598">
				<stop  offset="0" style="stop-color:#09005D"/>
				<stop  offset="1" style="stop-color:#1A0F91"/>
			</linearGradient>
			<path style="fill:url(#SVGID_00000021800375817580665240000002833660756625222277_);" d="M2445.359,2835.338l-69.86-232.978
				c-2.85-9.504-11.293-16.248-21.193-16.925l-94.321-6.454c-9.587-0.656-16.719,8.71-13.536,17.777l78.098,222.491
				c2.516,7.167,8.95,12.234,16.509,12.997l92.882,10.314L2445.359,2835.338z"/>
			<path style="fill:#91B3FA;" d="M2316.517,2681.322c5.215,10.529,14.223,16.696,20.118,13.775
				c5.896-2.92,6.446-13.823,1.23-24.351c-5.216-10.529-14.222-16.696-20.118-13.775
				C2311.853,2659.892,2311.302,2670.794,2316.517,2681.322z"/>
			
				<linearGradient id="SVGID_00000085216743043651235750000013917493894843417735_" gradientUnits="userSpaceOnUse" x1="2661.355" y1="2443.3232" x2="2491.3096" y2="2953.4607">
				<stop  offset="0" style="stop-color:#09005D"/>
				<stop  offset="1" style="stop-color:#1A0F91"/>
			</linearGradient>
			<path style="fill:url(#SVGID_00000085216743043651235750000013917493894843417735_);" d="M2433.937,2842.561
				c0.151,0,0.303-0.003,0.456-0.012l197.91-10.003c4.893-0.246,8.658-4.413,8.411-9.305c-0.247-4.894-4.432-8.74-9.307-8.411
				l-197.91,10.003c-4.892,0.246-8.658,4.413-8.411,9.305C2425.326,2838.878,2429.245,2842.561,2433.937,2842.561z"/>
			
				<linearGradient id="SVGID_00000038396462797711383220000003212897827559741345_" gradientUnits="userSpaceOnUse" x1="2664.0029" y1="1847.3826" x2="2674.1055" y2="2281.803">
				<stop  offset="0" style="stop-color:#E1473D"/>
				<stop  offset="1" style="stop-color:#E9605A"/>
			</linearGradient>
			<path style="fill:url(#SVGID_00000038396462797711383220000003212897827559741345_);" d="M2673.302,2643.036
				c-1.205,0-2.184-0.975-2.188-2.182c-0.141-41.896,15.969-97.301,16.131-97.854c0.34-1.161,1.558-1.825,2.716-1.485
				c1.16,0.342,1.824,1.558,1.485,2.716c-0.162,0.549-16.095,55.356-15.956,96.611c0.004,1.207-0.972,2.19-2.182,2.195
				C2673.307,2643.036,2673.304,2643.036,2673.302,2643.036z"/>
			
				<linearGradient id="SVGID_00000042722286065291433390000002744300101382399932_" gradientUnits="userSpaceOnUse" x1="2774.5903" y1="1844.8105" x2="2784.6929" y2="2279.2307">
				<stop  offset="0" style="stop-color:#E1473D"/>
				<stop  offset="1" style="stop-color:#E9605A"/>
			</linearGradient>
			<path style="fill:url(#SVGID_00000042722286065291433390000002744300101382399932_);" d="M2763.306,2663.355
				c-0.474,0-0.953-0.154-1.354-0.47c-0.947-0.75-1.109-2.126-0.362-3.075c0.434-0.547,43.377-55.138,58.055-92.337
				c0.444-1.126,1.718-1.674,2.84-1.233c1.124,0.445,1.675,1.716,1.233,2.84c-14.917,37.8-58.255,92.89-58.691,93.444
				C2764.594,2663.071,2763.953,2663.355,2763.306,2663.355z"/>
			
				<linearGradient id="SVGID_00000116236402188889230270000009511400608915385993_" gradientUnits="userSpaceOnUse" x1="2851.9514" y1="1843.0125" x2="2862.054" y2="2277.4329">
				<stop  offset="0" style="stop-color:#E1473D"/>
				<stop  offset="1" style="stop-color:#E9605A"/>
			</linearGradient>
			<path style="fill:url(#SVGID_00000116236402188889230270000009511400608915385993_);" d="M2824.002,2747.635l-8.208-11.606
				c-0.699-0.985-0.464-2.351,0.523-3.049c0.983-0.701,2.348-0.459,3.05,0.523l6.158,8.706
				c60.399-26.856,97.824-99.143,98.198-99.876c0.547-1.077,1.859-1.509,2.943-0.955c1.076,0.549,1.504,1.865,0.955,2.942
				c-0.385,0.754-39.165,75.719-101.993,102.618L2824.002,2747.635z"/>
		</g>
		<g>
			<path style="fill:#7D97F4;" d="M2011.81,945.247l-17.192,147.024c-1.348,11.528,12.707,18.185,20.772,9.839l151.599-156.863
				H2011.81z"/>
			<path style="fill:#7D97F4;" d="M2828.879,985.645h-923.135c-24.846,0-44.988-20.142-44.988-44.988V604.124
				c0-25.304,20.861-45.63,46.156-44.973l923.135,23.977c24.383,0.633,43.82,20.582,43.82,44.973v312.556
				C2873.867,965.503,2853.726,985.645,2828.879,985.645z"/>
			<path style="opacity:0.66;fill:#FFFFFF;" d="M2799.588,964.567h-870.083c-23.418,0-42.403-17.641-42.403-39.403V630.407
				c0-22.163,19.662-39.966,43.504-39.39l870.083,21c22.981,0.555,41.302,18.027,41.302,39.39v273.757
				C2841.991,946.926,2823.007,964.567,2799.588,964.567z"/>
			<path style="opacity:0.66;fill:#FFFFFF;" d="M2758.948,683.735H1966.02c-1.241,0-2.247-1.006-2.247-2.247v-19.185
				c0-1.241,1.006-2.247,2.247-2.247h792.928c1.241,0,2.247,1.006,2.247,2.247v19.185
				C2761.195,682.729,2760.189,683.735,2758.948,683.735z"/>
			<path style="opacity:0.66;fill:#FFFFFF;" d="M2758.948,912.072H1966.02c-1.241,0-2.247-1.006-2.247-2.247V890.64
				c0-1.241,1.006-2.247,2.247-2.247h792.928c1.241,0,2.247,1.006,2.247,2.247v19.185
				C2761.195,911.066,2760.189,912.072,2758.948,912.072z"/>
			<path style="opacity:0.66;fill:#FFFFFF;" d="M2504.265,838.301H1966.02c-1.241,0-2.247-1.006-2.247-2.247v-19.185
				c0-1.241,1.006-2.247,2.247-2.247h538.245c1.241,0,2.247,1.006,2.247,2.247v19.185
				C2506.512,837.295,2505.506,838.301,2504.265,838.301z"/>
			<path style="opacity:0.66;fill:#FFFFFF;" d="M2300.518,761.85H1966.02c-1.241,0-2.247-1.006-2.247-2.247v-19.185
				c0-1.241,1.006-2.247,2.247-2.247h334.499c1.241,0,2.247,1.006,2.247,2.247v19.185
				C2302.765,760.844,2301.759,761.85,2300.518,761.85z"/>
			<path style="opacity:0.66;fill:#FFFFFF;" d="M2758.948,838.299h-218.574c-1.241,0-2.247-1.006-2.247-2.247v-19.185
				c0-1.241,1.006-2.247,2.247-2.247h218.574c1.241,0,2.247,1.006,2.247,2.247v19.185
				C2761.195,837.293,2760.189,838.299,2758.948,838.299z"/>
			<path style="opacity:0.66;fill:#FFFFFF;" d="M2758.948,761.846h-406.512c-1.241,0-2.247-1.006-2.247-2.247v-19.185
				c0-1.241,1.006-2.247,2.247-2.247h406.512c1.241,0,2.247,1.006,2.247,2.247V759.6
				C2761.195,760.841,2760.189,761.846,2758.948,761.846z"/>
		</g>
	</g>
</g>
</svg>
